<?xml version="1.0" encoding="utf-8"?>
<!-- Generator: Adobe Illustrator 19.0.0, SVG Export Plug-In . SVG Version: 6.00 Build 0)  -->
<svg version="1.1" id="Layer_1" xmlns="http://www.w3.org/2000/svg" xmlns:xlink="http://www.w3.org/1999/xlink" x="0px" y="0px"
	 viewBox="0 0 28 28" style="enable-background:new 0 0 28 28;" xml:space="preserve">
<style type="text/css">
	.st0{fill:#FFFFFF;}
</style>
<path id="XMLID_1299_" class="st0" d="M4.1,18.1c-3.9-3.8-3.9-10,0-13.8c3.9-3.8,10.1-3.8,14,0c3.7,3.6,3.8,9.5,0.5,13.3l0.4,0.4
	c0.4-0.2,1-0.2,1.4,0.1l6,5.9c0.4,0.4,0.5,1.2,0,1.6l-0.8,0.8c-0.4,0.4-1.2,0.4-1.6-0.1l-6-5.9c-0.4-0.4-0.4-1-0.1-1.4l-0.4-0.4
	C13.5,21.8,7.7,21.6,4.1,18.1 M16.5,5.8c-3-3-7.9-3-10.9,0c-3,3-3,7.8,0,10.7c3,2.9,7.9,2.9,10.9,0C19.5,13.6,19.5,8.8,16.5,5.8"/>
</svg>
